<?xml version="1.0" encoding="UTF-8" standalone="no"?>
<!-- Created with Inkscape (http://www.inkscape.org/) -->

<svg
   width="8.4666662mm"
   height="8.4666662mm"
   viewBox="0 0 8.4666662 8.4666662"
   version="1.1"
   id="svg1"
   xml:space="preserve"
   inkscape:version="1.3 (0e150ed, 2023-07-21)"
   sodipodi:docname="nextcloud_news_filter_logo\.svg"
   xmlns:inkscape="http://www.inkscape.org/namespaces/inkscape"
   xmlns:sodipodi="http://sodipodi.sourceforge.net/DTD/sodipodi-0.dtd"
   xmlns="http://www.w3.org/2000/svg"
   xmlns:svg="http://www.w3.org/2000/svg"><sodipodi:namedview
     id="namedview1"
     pagecolor="#ffffff"
     bordercolor="#000000"
     borderopacity="0.25"
     inkscape:showpageshadow="2"
     inkscape:pageopacity="0.0"
     inkscape:pagecheckerboard="0"
     inkscape:deskcolor="#d1d1d1"
     inkscape:document-units="mm"
     inkscape:zoom="6.7277216"
     inkscape:cx="19.694632"
     inkscape:cy="-12.634292"
     inkscape:window-width="1680"
     inkscape:window-height="997"
     inkscape:window-x="1792"
     inkscape:window-y="25"
     inkscape:window-maximized="1"
     inkscape:current-layer="layer1" /><defs
     id="defs1" /><g
     inkscape:label="Layer 1"
     inkscape:groupmode="layer"
     id="layer1"
     transform="translate(-100.84929,-144.26667)"><g
       id="g1"
       transform="matrix(0.26458333,0,0,0.26458333,100.84929,144.26667)"><rect
         id="rect4547"
         fill="#0082c9"
         x="0"
         y="-5.2587998e-06"
         width="32"
         height="32"
         ry="5"
         rx="5" /><path
         style="fill:#ffffff;stroke-width:0.921429"
         d="m 3.7714273,3.1652662 c -0.5104715,0 -0.9214286,0.4109573 -0.9214286,0.9214286 v 1.842857 c 0,0.5104714 0.4109571,0.9214286 0.9214286,0.9214286 H 27.72857 c 0.510471,0 0.921428,-0.4109572 0.921428,-0.9214286 v -1.842857 c 0,-0.5104713 -0.410957,-0.9214286 -0.921428,-0.9214286 z m 0,7.3714278 c -0.5104715,0 -0.9214286,0.410958 -0.9214286,0.921429 v 1.842857 c 0,0.510472 0.4109571,0.921429 0.9214286,0.921429 H 20.357141 c 0.510471,0 0.921429,-0.410957 0.921429,-0.921429 v -1.842857 c 0,-0.510471 -0.410958,-0.921429 -0.921429,-0.921429 z m 0,7.371429 c -0.5104715,0 -0.9214286,0.410957 -0.9214286,0.921428 v 1.842858 c 0,0.510471 0.4109571,0.921429 0.9214286,0.921429 H 25.885712 c 0.510472,0 0.921429,-0.410958 0.921429,-0.921429 v -1.842858 c 0,-0.510471 -0.410957,-0.921428 -0.921429,-0.921428 z m 0,7.371429 c -0.5104715,0 -0.9214286,0.410958 -0.9214286,0.921429 v 1.842857 c 0,0.510472 0.4109571,0.921429 0.9214286,0.921429 H 14.82857 c 0.510472,0 0.921429,-0.410957 0.921429,-0.921429 v -1.842857 c 0,-0.510471 -0.410957,-0.921429 -0.921429,-0.921429 z"
         id="path4725" /></g><path
       d="m 107.15241,150.31702 1.28583,-1.42977 h -3.32906 l 1.28582,1.42977 z m -0.13379,0.47659 h -0.48983 v 1.20505 l 0.48983,-0.17872 z m -2.20427,-2.38295 h 3.91872 v -0.23829 h -3.91872 z m 1.2246,2.23419 -1.71444,-1.90635 v -0.56613 c 0,-0.26321 0.21931,-0.47659 0.48984,-0.47659 h 3.91872 c 0.27053,0 0.48983,0.21338 0.48983,0.47659 v 0.56613 l -1.71443,1.90635 v 1.50536 l -1.46952,0.53616 z"
       fill-rule="evenodd"
       id="path1"
       style="stroke-width:0.241584" /></g></svg>
